# xmcd
#
# Track frame offsets: 
#        150
#        10306
#        22270
#        34897
#        46846
#        61281
#        76290
#        87669
#        100421
#        111163
#        121634
#        134264
#        145327
#        162487
#
# Disc length: 2349 seconds
#
# Revision: 0
# Processed by: cddbd v1.5.2PL0 Copyright (c) Steve Scherf et al.
# Submitted via: ExactAudioCopy v1.3
#
DISCID=be092b0e
DTITLE=Rose Maddox - A Beautiful Bouquet
DYEAR=1983
DGENRE=Country
TTITLE0=We Are Climbing Jacob's Ladder
TTITLE1=Life's Evening Sun
TTITLE2=Church In The Wildwood
TTITLE3=When God Dips His Love In My Heart
TTITLE4=I Can't Feel At Home
TTITLE5=Farther Along
TTITLE6=I'll Fly Away
TTITLE7=In the Sweet By And By
TTITLE8=Kneel At The Cross
TTITLE9=Turn Your Radio On
TTITLE10=Beautiful Bouquet
TTITLE11=Take Me In The Lifeboat
TTITLE12=If We Never Meet Again
TTITLE13=Swing Low Sweet Chariot
EXTD=
EXTT0=
EXTT1=
EXTT2=
EXTT3=
EXTT4=
EXTT5=
EXTT6=
EXTT7=
EXTT8=
EXTT9=
EXTT10=
EXTT11=
EXTT12=
EXTT13=
PLAYORDER=
